<?xml version="1.0" encoding="UTF-8"?>
<svg width="40px" height="39px" viewBox="0 0 40 39" version="1.1" xmlns="http://www.w3.org/2000/svg" xmlns:xlink="http://www.w3.org/1999/xlink">
    <!-- Generator: Sketch 52.5 (67469) - http://www.bohemiancoding.com/sketch -->
    <title>favicon 1</title>
    <desc>Created with Sketch.</desc>
    <g id="favicon-1" stroke="none" stroke-width="1" fill="none" fill-rule="evenodd">
        <g id="O" fill="#5293B4">
            <path d="M20,37.9328614 C19.8216731,37.9772493 19.6410956,38 19.458443,38 C7.9945541,38 -2.55795385e-13,30.5293006 -2.55795385e-13,19.0359168 C-2.55795385e-13,7.61436673 7.9945541,-2.84251789e-14 19.458443,-2.84251789e-14 C19.6429508,-2.84251789e-14 19.8234532,0.00984349387 20,0.0292136255 C20.1765468,0.00984349387 20.3570492,-2.84251789e-14 20.541557,-2.84251789e-14 C32.0054459,-2.84251789e-14 40,7.61436673 40,19.0359168 C40,30.5293006 32.0054459,38 20.541557,38 C20.3589044,38 20.1783269,37.9772493 20,37.9328614 Z M19.5365854,24 C22.6829268,24 24,22.7142857 24,19.5108959 C24,16.3075061 22.6829268,15 19.5365854,15 C16.3902439,15 15,16.3728814 15,19.5108959 C15,22.6489104 16.3902439,24 19.5365854,24 Z" id="Combined-Shape"></path>
            <circle id="O-spindle" cx="19.5" cy="19.5" r="1.5"></circle>
        </g>
    </g>
</svg>