<?xml version="1.0" encoding="UTF-8"?>
<svg width="38px" height="38px" viewBox="0 0 38 38" version="1.1" xmlns="http://www.w3.org/2000/svg" xmlns:xlink="http://www.w3.org/1999/xlink">
    <!-- Generator: Sketch 52.5 (67469) - http://www.bohemiancoding.com/sketch -->
    <title>favicon 2</title>
    <desc>Created with Sketch.</desc>
    <g id="favicon-2" stroke="none" stroke-width="1" fill="none" fill-rule="evenodd">
        <path d="M4,1.08 L7.87657143,1.08 C12.3382857,1.08 14.9714286,2.376 16.3611429,4.536 C18.336,1.728 21.3348571,1.42108547e-14 25.1382857,1.42108547e-14 C31.7211429,1.42108547e-14 34.9394286,4.536 34.9394286,10.296 C34.9394286,15.84 31.4285714,18.648 27.4057143,18.648 C23.8217143,18.648 21.1154286,15.984 21.1154286,12.456 C21.1154286,8.64 24.2605714,6.48 27.04,6.48 C28.8685714,6.48 30.4045714,7.272 31.2822857,8.568 C30.624,5.472 28.6491429,3.6 25.3577143,3.6 C21.4811429,3.6 17.7508571,5.472 17.6045714,13.824 L17.6045714,37.08 L4,37.08 L4,1.08 Z M27.531746,14.9843749 C28.9299907,14.9843749 30.063492,13.8685846 30.063492,12.4921875 C30.063492,11.1157903 28.9299907,10 27.531746,10 C26.1335013,10 25,11.1157903 25,12.4921875 C25,13.8685846 26.1335013,14.9843749 27.531746,14.9843749 Z" id="Combined-Shape" fill="#5293B4"></path>
    </g>
</svg>